# Blender v3.0.1 OBJ File: ''
# www.blender.org
o BezierCurve_BezierCurve.004
v 0.182692 1.248355 -0.997220
v 0.165116 1.206367 0.997220
v 0.161984 1.204688 -0.997220
v 0.025304 0.813935 -0.997220
v 0.014997 0.762124 0.997220
v 0.011865 0.760445 -0.997220
v 0.141276 1.161020 -0.997220
v 0.123700 1.119032 0.997220
v 0.120568 1.117353 -0.997220
v -0.001574 0.706956 -0.997220
v -0.008177 0.651828 0.997220
v 0.001558 0.708635 0.997220
v 0.203400 1.292023 -0.997220
v 0.185824 1.250035 0.997220
v 0.038742 0.867424 -0.997220
v 0.028435 0.815614 0.997220
v -0.034971 -0.534355 -0.997220
v -0.041313 -0.475217 0.997220
v -0.031839 -0.532676 0.997220
v 0.052181 0.920914 -0.997220
v 0.041874 0.869103 0.997220
v -0.030780 0.536534 -0.997220
v -0.037383 0.481406 0.997220
v -0.027648 0.538213 0.997220
v -0.025496 -0.591814 -0.997220
v -0.022365 -0.590135 0.997220
v -0.006548 -0.706731 -0.997220
v -0.012890 -0.647593 0.997220
v -0.003416 -0.705052 0.997220
v -0.068258 -0.178698 -0.997220
v -0.063474 -0.237404 0.997220
v -0.065126 -0.177019 0.997220
v -0.016022 -0.649272 -0.997220
v -0.058471 0.302540 -0.997220
v -0.061325 0.245157 0.997220
v -0.064457 0.243478 -0.997220
v -0.021044 0.593341 -0.997220
v -0.017913 0.595020 0.997220
v 0.144408 1.162699 0.997220
v 0.006906 -0.761133 -0.997220
v -0.046500 0.420665 -0.997220
v -0.049354 0.363282 0.997220
v -0.052486 0.361602 -0.997220
v -0.011309 0.650149 -0.997220
v -0.071025 0.062713 -0.997220
v -0.070083 0.004137 0.997220
v -0.073215 0.002458 -0.997220
v -0.040515 0.479727 -0.997220
v -0.043369 0.422344 0.997220
v 0.033815 -0.869936 -0.997220
v 0.023492 -0.813856 0.997220
v 0.020361 -0.815535 -0.997220
v -0.055340 0.304219 0.997220
v -0.044445 -0.476896 -0.997220
v -0.046853 -0.415764 0.997220
v 0.047269 -0.924338 -0.997220
v 0.036947 -0.868257 0.997220
v -0.066646 0.183223 -0.997220
v -0.065704 0.124647 0.997220
v -0.068836 0.122968 -0.997220
v 0.010038 -0.759454 0.997220
v 0.069278 0.970024 -0.997220
v 0.055313 0.922593 0.997220
v -0.063515 0.184902 0.997220
v -0.055525 -0.357990 -0.997220
v -0.057934 -0.296857 0.997220
v -0.052394 -0.356310 0.997220
v -0.067894 0.064392 0.997220
v 0.064749 -0.974620 -0.997220
v 0.050401 -0.922659 0.997220
v -0.061066 -0.298536 -0.997220
v 0.103471 1.068243 -0.997220
v 0.089506 1.020813 0.997220
v 0.086375 1.019133 -0.997220
v -0.049985 -0.417443 -0.997220
v 0.138743 -1.170568 -0.997220
v 0.120322 -1.123788 0.997220
v 0.117190 -1.125467 -0.997220
v 0.106603 1.069922 0.997220
v 0.099710 -1.075185 -0.997220
v 0.085361 -1.023224 0.997220
v 0.082230 -1.024903 -0.997220
v 0.072410 0.971703 0.997220
v -0.068431 -0.056248 0.997220
v 0.102842 -1.073506 0.997220
v 0.181848 -1.260769 -0.997220
v 0.163427 -1.213989 0.997220
v 0.160295 -1.215669 -0.997220
v 0.067881 -0.972941 0.997220
v -0.069910 -0.118313 -0.997220
v -0.066779 -0.116633 0.997220
v 0.141874 -1.168889 0.997220
v 0.203400 -1.305870 -0.997220
v 0.184979 -1.259090 0.997220
v -0.071563 -0.057927 -0.997220
v 0.206532 1.293702 0.997220
v -0.066606 -0.239083 -0.997220
v 0.206532 -1.304191 0.997220
vn 0.9035 -0.4285 -0.0011
vn 0.9036 -0.4285 -0.0011
vn 0.9699 -0.2437 -0.0013
vn -0.9856 0.1689 0.0014
vn 0.9867 0.1627 -0.0017
vn -0.9996 -0.0273 0.0016
vn -0.9996 -0.0274 0.0016
vn 0.9949 -0.1008 -0.0015
vn -0.9708 -0.2401 0.0017
vn 0.9993 -0.0363 -0.0015
vn 0.9957 0.0928 -0.0016
vn -0.9707 -0.2401 0.0017
vn 0.9444 -0.3288 -0.0012
vn -0.9446 -0.3284 0.0018
vn -0.9023 -0.4312 0.0018
vn -0.9445 -0.3284 0.0018
s 1
f 1//1 2//2 3//1
f 4//3 5//3 6//3
f 7//1 8//1 9//1
f 10//4 11//4 12//4
f 13//2 14//1 1//1
f 15//3 16//3 4//3
f 17//5 18//5 19//5
f 20//3 21//3 15//3
f 22//4 23//4 24//4
f 25//5 19//5 26//5
f 27//5 28//5 29//5
f 30//6 31//6 32//7
f 33//5 26//5 28//5
f 34//8 35//8 36//8
f 37//4 24//4 38//4
f 3//1 39//1 7//2
f 40//9 29//9 27//9
f 41//8 42//8 43//8
f 44//4 38//4 11//4
f 45//10 46//10 47//10
f 48//8 49//8 41//8
f 50//9 51//9 52//9
f 43//8 53//8 34//8
f 54//11 55//11 18//11
f 56//9 57//12 50//9
f 58//10 59//10 60//10
f 52//9 61//9 40//9
f 62//13 63//13 20//13
f 36//10 64//10 58//10
f 65//11 66//11 67//11
f 60//10 68//10 45//10
f 69//14 70//14 56//14
f 71//11 31//11 66//11
f 72//13 73//13 74//13
f 75//11 67//11 55//11
f 76//15 77//15 78//15
f 9//13 79//13 72//13
f 80//16 81//16 82//16
f 74//13 83//13 62//13
f 47//6 84//6 46//6
f 78//14 85//16 80//16
f 86//15 87//15 88//15
f 82//16 89//14 69//16
f 90//7 32//7 91//7
f 88//15 92//15 76//15
f 93//15 94//15 86//15
f 6//3 12//3 10//3
f 95//7 91//7 84//6
f 1//1 14//1 2//2
f 4//3 16//3 5//3
f 7//2 39//1 8//1
f 10//4 44//4 11//4
f 13//2 96//1 14//1
f 15//3 21//3 16//3
f 17//5 54//5 18//5
f 20//3 63//3 21//3
f 22//4 48//4 23//4
f 25//5 17//5 19//5
f 27//5 33//5 28//5
f 30//6 97//6 31//6
f 33//5 25//5 26//5
f 34//8 53//8 35//8
f 37//4 22//4 24//4
f 3//1 2//2 39//1
f 40//9 61//9 29//9
f 41//8 49//8 42//8
f 44//4 37//4 38//4
f 45//10 68//10 46//10
f 48//8 23//8 49//8
f 50//9 57//12 51//9
f 43//8 42//8 53//8
f 54//11 75//11 55//11
f 56//9 70//9 57//9
f 58//10 64//10 59//10
f 52//9 51//9 61//9
f 62//13 83//13 63//13
f 36//10 35//10 64//10
f 65//11 71//11 66//11
f 60//10 59//10 68//10
f 69//16 89//14 70//16
f 71//11 97//11 31//11
f 72//13 79//13 73//13
f 75//11 65//11 67//11
f 76//15 92//15 77//15
f 9//13 8//13 79//13
f 80//16 85//16 81//16
f 74//13 73//13 83//13
f 47//6 95//7 84//6
f 78//14 77//14 85//14
f 86//15 94//15 87//15
f 82//16 81//16 89//14
f 90//7 30//6 32//7
f 88//15 87//15 92//15
f 93//15 98//15 94//15
f 6//3 5//3 12//3
f 95//7 90//7 91//7
