# Blender v3.0.1 OBJ File: ''
# www.blender.org
o BezierCurve.003
v 0.081223 -1.345234 -0.844829
v 0.064021 -1.369678 -0.844908
v 0.063082 -1.378727 0.829530
v 0.080284 -1.354284 0.829609
v -0.086870 -0.282266 -0.830973
v -0.086242 -0.314921 -0.831302
v -0.087181 -0.323971 0.843136
v -0.087809 -0.291316 0.843465
v 0.029091 -0.778074 -0.837632
v 0.039795 -0.810583 -0.838128
v 0.038856 -0.819633 0.836310
v 0.028152 -0.787124 0.836806
v -0.007044 1.467228 -0.845065
v 0.012413 1.503143 -0.845144
v 0.011474 1.494093 0.829294
v -0.007983 1.458178 0.829373
v 0.080922 0.381544 -0.831631
v 0.081687 0.352898 -0.831302
v 0.080748 0.343848 0.843136
v 0.079983 0.372494 0.842807
v -0.043690 -0.546717 -0.834217
v -0.034423 -0.579999 -0.834685
v -0.035362 -0.589049 0.839753
v -0.044629 -0.555767 0.840221
v 0.069927 -0.907197 -0.839588
v 0.078651 -0.938794 -0.840056
v 0.077712 -0.947844 0.834382
v 0.068988 -0.916247 0.834850
v -0.012074 0.697329 -0.836640
v -0.022802 0.726334 -0.837136
v -0.023741 0.717284 0.837302
v -0.013013 0.688279 0.837798
v 0.020108 0.610314 -0.835153
v 0.029370 0.581658 -0.834685
v 0.028431 0.572608 0.839753
v 0.019169 0.601264 0.839285
v 0.046818 -1.394121 -0.844987
v 0.029616 -1.418565 -0.845066
v 0.028677 -1.427614 0.829373
v 0.045879 -1.403171 0.829452
v -0.087499 -0.249612 -0.830644
v -0.088438 -0.258661 0.843794
v 0.050500 -0.843092 -0.838624
v 0.061204 -0.875601 -0.839120
v 0.060265 -0.884651 0.835318
v 0.049561 -0.852142 0.835814
v 0.115865 -1.123322 -0.842642
v 0.110923 -1.092988 -0.842230
v 0.109984 -1.102038 0.832209
v 0.114926 -1.132372 0.831796
v 0.082451 0.324252 -0.830973
v 0.083216 0.295606 -0.830644
v 0.082277 0.286556 0.843794
v 0.081512 0.315202 0.843465
v -0.052956 -0.513434 -0.833749
v -0.053895 -0.522484 0.840689
v 0.087374 -0.970390 -0.840524
v 0.096097 -1.001987 -0.840992
v 0.095158 -1.011037 0.833446
v 0.086435 -0.979440 0.833914
v 0.058907 0.151020 -0.829444
v 0.043750 0.121467 -0.829365
v 0.042811 0.112417 0.845073
v 0.057968 0.141970 0.844994
v 0.038633 0.553002 -0.834217
v 0.047895 0.524346 -0.833749
v 0.046956 0.515296 0.840689
v 0.037694 0.543952 0.840221
v -0.085614 -0.347576 -0.831631
v -0.086553 -0.356626 0.842807
v -0.104563 1.222722 -0.843958
v -0.106535 1.190027 -0.843629
v -0.107474 1.180978 0.830809
v -0.105502 1.213672 0.830480
v 0.105981 -1.062654 -0.841817
v 0.101039 -1.032321 -0.841405
v 0.100100 -1.041370 0.833034
v 0.105042 -1.071704 0.832621
v -0.025157 -0.613282 -0.835153
v -0.026096 -0.622332 0.839285
v 0.113307 -1.238205 -0.843958
v 0.105286 -1.264962 -0.844176
v 0.104347 -1.274012 0.830262
v 0.112368 -1.247254 0.830480
v 0.028593 0.091914 -0.829287
v 0.013435 0.062360 -0.829208
v 0.012496 0.053311 0.845231
v 0.027654 0.082864 0.845152
v 0.012413 -1.443008 -0.845144
v 0.011474 -1.452058 0.829294
v -0.014271 -0.646353 -0.835649
v -0.015210 -0.655402 0.838790
v -0.108507 1.157333 -0.843300
v -0.110479 1.124638 -0.842971
v -0.111418 1.115589 0.831467
v -0.109446 1.148283 0.831138
v 0.083980 0.266960 -0.830315
v 0.083041 0.257910 0.844123
v -0.033138 0.755918 -0.837632
v -0.034077 0.746868 0.836806
v 0.097265 -1.291719 -0.844394
v 0.089244 -1.318477 -0.844612
v 0.088305 -1.327526 0.829827
v 0.096326 -1.300769 0.830045
v 0.057157 0.495690 -0.833281
v 0.056218 0.486640 0.841157
v 0.077712 0.237975 -0.830097
v 0.076773 0.228925 0.844341
v -0.003385 -0.679423 -0.836145
v 0.007500 -0.712494 -0.836641
v 0.006561 -0.721544 0.837798
v -0.004324 -0.688473 0.838294
v -0.079766 -0.380720 -0.832044
v -0.080705 -0.389770 0.842395
v -0.043474 0.785501 -0.838128
v -0.053811 0.815085 -0.838624
v -0.054750 0.806035 0.835814
v -0.044413 0.776451 0.836310
v -0.001722 0.032807 -0.829129
v -0.002661 0.023757 0.845309
v -0.112451 1.091944 -0.842642
v -0.108464 1.060516 -0.842230
v -0.109403 1.051466 0.832209
v -0.113390 1.082894 0.831796
v 0.071444 0.208990 -0.829880
v 0.065175 0.180005 -0.829662
v 0.064236 0.170955 0.844777
v 0.070505 0.199940 0.844559
v 0.063098 0.467154 -0.832869
v 0.062159 0.458104 0.841570
v -0.073918 -0.413864 -0.832456
v -0.068071 -0.447008 -0.832869
v -0.069010 -0.456058 0.841570
v -0.074857 -0.422914 0.841982
v -0.062564 -0.089696 -0.829444
v -0.047353 -0.059070 -0.829365
v -0.048292 -0.068120 0.845073
v -0.063503 -0.098746 0.844994
v -0.104478 1.029088 -0.841817
v -0.100491 0.997660 -0.841405
v -0.101430 0.988610 0.833034
v -0.105417 1.020038 0.832621
v 0.018386 -0.745565 -0.837136
v 0.017447 -0.754615 0.837302
v 0.069040 0.438617 -0.832456
v 0.074981 0.410081 -0.832044
v 0.074042 0.401031 0.842395
v 0.068101 0.429567 0.841982
v -0.064147 0.844668 -0.839120
v -0.065086 0.835618 0.835318
v -0.032143 -0.028444 -0.829287
v -0.016932 0.002181 -0.829208
v -0.017871 -0.006868 0.845231
v -0.033082 -0.037494 0.845152
v 0.113947 -1.209484 -0.843629
v 0.113008 -1.218534 0.830809
v -0.062223 -0.480152 -0.833281
v -0.063162 -0.489202 0.841157
v -0.088127 -0.216957 -0.830315
v -0.081736 -0.185142 -0.830097
v -0.082675 -0.194191 0.844341
v -0.089066 -0.226007 0.844123
v -0.096505 0.966232 -0.840992
v -0.097444 0.957182 0.833446
v -0.065416 1.359483 -0.844829
v -0.075203 1.325293 -0.844611
v -0.076142 1.316243 0.829827
v -0.066355 1.350433 0.829609
v 0.114586 -1.180763 -0.843300
v 0.115226 -1.152043 -0.842971
v 0.114287 -1.161092 0.831467
v 0.113647 -1.189813 0.831138
v -0.088415 0.935841 -0.840524
v -0.089354 0.926791 0.833914
v -0.075345 -0.153326 -0.829880
v -0.068955 -0.121511 -0.829662
v -0.069894 -0.130561 0.844777
v -0.076284 -0.162376 0.844559
v -0.045959 1.395398 -0.844908
v -0.046898 1.386348 0.829531
v -0.084989 1.291102 -0.844394
v -0.094776 1.256912 -0.844176
v -0.095715 1.247863 0.830263
v -0.085928 1.282053 0.830045
v 0.009381 0.639319 -0.835649
v 0.008442 0.630269 0.838790
v -0.080326 0.905450 -0.840056
v -0.072236 0.875059 -0.839588
v -0.073175 0.866009 0.834850
v -0.081265 0.896400 0.834382
v -0.026501 1.431313 -0.844987
v -0.027440 1.422264 0.829452
v -0.001347 0.668324 -0.836145
v -0.002286 0.659274 0.838294
vn -0.8178 0.5755 0.0027
vn -0.9998 -0.0192 -0.0007
vn -0.9498 -0.3127 -0.0022
vn 0.8793 -0.4763 -0.0021
vn -0.9996 -0.0267 -0.0007
vn -0.9634 -0.2682 -0.0020
vn -0.9639 -0.2661 -0.0020
vn 0.9379 0.3469 0.0024
vn -0.9515 -0.3076 -0.0022
vn 0.9870 0.1608 0.0014
vn -0.8898 0.4564 0.0020
vn -0.9982 0.0602 -0.0002
vn -0.9579 0.2871 0.0010
vn -0.9499 -0.3126 -0.0022
vn 0.9440 0.3299 0.0023
vn -0.9774 0.2114 0.0006
vn -0.9848 -0.1737 -0.0015
vn -0.9920 -0.1259 -0.0012
vn -0.9790 -0.2039 -0.0017
vn -0.9790 -0.2038 -0.0017
vn 0.8956 -0.4448 -0.0019
vn -0.9499 -0.3127 -0.0022
vn 0.9998 -0.0223 0.0004
vn 0.9804 -0.1969 -0.0005
vn -0.9921 -0.1258 -0.0012
vn -0.9614 0.2752 0.0009
vn -0.9663 -0.2573 -0.0019
vn 0.8793 -0.4764 -0.0021
vn 0.9998 -0.0222 0.0004
vn -0.9663 -0.2572 -0.0019
vn -0.8898 0.4563 0.0020
s 1
f 2//1 4//1 1//1
f 5//2 7//2 8//2
f 9//3 11//3 12//3
f 13//4 15//4 16//4
f 18//5 20//5 17//5
f 21//6 23//6 24//6
f 25//7 27//7 28//7
f 29//8 31//8 32//8
f 34//9 36//9 33//9
f 38//1 40//1 37//1
f 41//2 8//2 42//2
f 43//3 45//3 46//3
f 48//10 50//10 47//10
f 52//5 54//5 51//5
f 55//6 24//6 56//6
f 57//7 59//7 60//7
f 62//11 64//11 61//11
f 66//9 68//9 65//9
f 37//1 3//1 2//1
f 6//2 70//2 7//2
f 72//12 74//12 71//12
f 76//10 78//10 75//10
f 51//5 19//5 18//5
f 22//6 80//6 23//6
f 81//13 83//13 84//13
f 86//11 88//11 85//11
f 65//9 35//9 34//9
f 89//1 39//1 38//1
f 79//14 92//14 80//14
f 94//12 96//12 93//12
f 75//10 49//10 48//10
f 97//5 53//5 52//5
f 30//15 100//15 31//15
f 101//13 103//13 104//13
f 85//11 63//11 62//11
f 105//9 67//9 66//9
f 107//16 98//16 97//16
f 109//14 111//14 112//14
f 93//12 73//12 72//12
f 58//10 77//10 76//10
f 69//17 114//17 70//17
f 115//15 117//15 118//15
f 82//13 104//13 83//13
f 119//11 87//11 86//11
f 122//18 124//18 121//18
f 126//16 128//16 125//16
f 91//14 112//14 92//14
f 121//12 95//12 94//12
f 129//19 106//20 105//20
f 131//17 133//17 134//17
f 99//15 118//15 100//15
f 102//13 4//13 103//13
f 135//21 137//21 138//21
f 140//18 142//18 139//18
f 125//16 108//16 107//16
f 110//14 144//22 111//14
f 146//20 148//19 145//19
f 113//17 134//17 114//17
f 116//15 150//15 117//15
f 151//21 153//21 154//21
f 139//18 123//18 122//18
f 61//16 127//16 126//16
f 155//23 84//23 81//23
f 145//19 130//19 129//19
f 132//17 158//17 133//17
f 160//24 162//24 159//24
f 136//21 154//21 137//21
f 163//25 141//18 140//18
f 166//26 168//26 165//26
f 170//23 172//23 169//23
f 17//20 147//20 146//20
f 173//27 164//27 163//27
f 176//24 178//24 175//24
f 152//21 120//21 153//21
f 165//4 180//4 168//4
f 182//26 184//26 181//26
f 169//23 156//23 155//23
f 33//8 186//8 36//8
f 188//27 190//27 187//27
f 175//24 161//24 160//24
f 143//22 12//3 144//22
f 191//28 16//4 192//28
f 181//26 167//26 166//26
f 47//29 171//23 170//23
f 44//7 28//7 45//7
f 193//8 32//8 194//8
f 187//27 174//27 173//27
f 135//24 177//24 176//24
f 159//2 42//2 162//2
f 10//3 46//3 11//3
f 179//28 192//28 180//4
f 71//26 183//26 182//26
f 157//6 56//6 158//6
f 26//7 60//7 27//7
f 185//8 194//8 186//8
f 149//30 189//27 188//27
f 2//1 3//1 4//1
f 5//2 6//2 7//2
f 9//3 10//3 11//3
f 13//4 14//4 15//4
f 18//5 19//5 20//5
f 21//6 22//6 23//6
f 25//7 26//7 27//7
f 29//8 30//8 31//8
f 34//9 35//9 36//9
f 38//1 39//1 40//1
f 41//2 5//2 8//2
f 43//3 44//3 45//3
f 48//10 49//10 50//10
f 52//5 53//5 54//5
f 55//6 21//6 24//6
f 57//7 58//7 59//7
f 62//11 63//11 64//11
f 66//9 67//9 68//9
f 37//1 40//1 3//1
f 6//2 69//2 70//2
f 72//12 73//12 74//12
f 76//10 77//10 78//10
f 51//5 54//5 19//5
f 22//6 79//6 80//6
f 81//13 82//13 83//13
f 86//11 87//11 88//11
f 65//9 68//9 35//9
f 89//1 90//1 39//1
f 79//14 91//14 92//14
f 94//12 95//12 96//12
f 75//10 78//10 49//10
f 97//5 98//5 53//5
f 30//15 99//15 100//15
f 101//13 102//13 103//13
f 85//11 88//11 63//11
f 105//9 106//9 67//9
f 107//16 108//16 98//16
f 109//14 110//14 111//14
f 93//12 96//12 73//12
f 58//10 59//10 77//10
f 69//17 113//17 114//17
f 115//15 116//15 117//15
f 82//13 101//13 104//13
f 119//11 120//31 87//11
f 122//18 123//18 124//18
f 126//16 127//16 128//16
f 91//14 109//14 112//14
f 121//12 124//12 95//12
f 129//19 130//19 106//20
f 131//17 132//17 133//17
f 99//15 115//15 118//15
f 102//13 1//13 4//13
f 135//21 136//21 137//21
f 140//18 141//18 142//18
f 125//16 128//16 108//16
f 110//14 143//22 144//22
f 146//20 147//20 148//19
f 113//17 131//17 134//17
f 116//15 149//15 150//15
f 151//21 152//21 153//21
f 139//18 142//18 123//18
f 61//16 64//16 127//16
f 155//23 156//23 84//23
f 145//19 148//19 130//19
f 132//17 157//17 158//17
f 160//24 161//24 162//24
f 136//21 151//21 154//21
f 163//25 164//25 141//18
f 166//26 167//26 168//26
f 170//23 171//23 172//23
f 17//20 20//20 147//20
f 173//27 174//27 164//27
f 176//24 177//24 178//24
f 152//21 119//21 120//21
f 165//4 179//28 180//4
f 182//26 183//26 184//26
f 169//23 172//23 156//23
f 33//8 185//8 186//8
f 188//27 189//27 190//27
f 175//24 178//24 161//24
f 143//22 9//3 12//3
f 191//28 13//4 16//4
f 181//26 184//26 167//26
f 47//29 50//29 171//23
f 44//7 25//7 28//7
f 193//8 29//8 32//8
f 187//27 190//27 174//27
f 135//24 138//24 177//24
f 159//2 41//2 42//2
f 10//3 43//3 46//3
f 179//28 191//28 192//28
f 71//26 74//26 183//26
f 157//6 55//6 56//6
f 26//7 57//7 60//7
f 185//8 193//8 194//8
f 149//30 150//30 189//27
