# Blender v2.93.4 OBJ File: ''
# www.blender.org
mtllib curved_surface_yz.mtl
o BezierCurve
v -0.013090 1.963871 3.000000
v 0.207310 1.719277 3.000000
v 0.207310 1.719277 0.000000
v -0.013090 1.963871 0.000000
v 0.351800 1.470767 3.000000
v 0.351800 1.470767 0.000000
v 0.431249 1.215005 3.000000
v 0.431249 1.215005 0.000000
v 0.456528 0.948653 3.000000
v 0.456529 0.948653 0.000000
v 0.438509 0.668373 3.000000
v 0.438509 0.668373 0.000000
v 0.388059 0.370829 3.000000
v 0.388059 0.370829 0.000000
v 0.316051 0.052683 3.000000
v 0.316051 0.052683 0.000000
v 0.233354 -0.289401 3.000000
v 0.233354 -0.289401 0.000000
v 0.150840 -0.658762 3.000000
v 0.150840 -0.658762 0.000000
v 0.079377 -1.058735 3.000000
v 0.079378 -1.058735 0.000000
v 0.029836 -1.492660 3.000000
v 0.029837 -1.492660 0.000000
v 0.013090 -1.963871 3.000000
v 0.013090 -1.963871 0.000000
vn 0.7429 0.6694 0.0000
vn 0.8080 0.5892 0.0000
vn 0.9156 0.4022 0.0000
vn 0.9805 0.1966 0.0000
vn 0.9999 0.0152 0.0000
vn 0.9933 -0.1158 0.0000
vn 0.9810 -0.1940 0.0000
vn 0.9737 -0.2279 0.0000
vn 0.9740 -0.2265 0.0000
vn 0.9804 -0.1970 0.0000
vn 0.9895 -0.1447 0.0000
vn 0.9972 -0.0745 0.0000
vn 0.9994 -0.0355 0.0000
usemtl Default_OBJ
s 1
f 1//1 2//2 3//2 4//1
f 2//2 5//3 6//3 3//2
f 5//3 7//4 8//4 6//3
f 7//4 9//5 10//5 8//4
f 9//5 11//6 12//6 10//5
f 11//6 13//7 14//7 12//6
f 13//7 15//8 16//8 14//7
f 15//8 17//9 18//9 16//8
f 17//9 19//10 20//10 18//9
f 19//10 21//11 22//11 20//10
f 21//11 23//12 24//12 22//11
f 23//12 25//13 26//13 24//12
