# Blender v3.1.2 OBJ File: ''
# www.blender.org
o BezierCurve.003
v 0.064021 -1.369678 -0.844908
v 0.080284 -1.354284 0.829609
v 0.081223 -1.345234 -0.844829
v -0.086870 -0.282266 -0.830973
v -0.087181 -0.323971 0.843136
v -0.087809 -0.291316 0.843465
v 0.029091 -0.778074 -0.837632
v 0.038856 -0.819633 0.836310
v 0.028152 -0.787124 0.836806
v -0.007044 1.467228 -0.845065
v 0.011474 1.494093 0.829294
v -0.007983 1.458178 0.829373
v 0.081687 0.352898 -0.831302
v 0.079983 0.372494 0.842807
v 0.080922 0.381544 -0.831631
v -0.043690 -0.546717 -0.834217
v -0.035362 -0.589049 0.839753
v -0.044629 -0.555767 0.840221
v 0.069927 -0.907197 -0.839588
v 0.077712 -0.947844 0.834382
v 0.068988 -0.916247 0.834850
v -0.012074 0.697329 -0.836640
v -0.023741 0.717284 0.837302
v -0.013013 0.688279 0.837798
v 0.029370 0.581658 -0.834685
v 0.019169 0.601264 0.839285
v 0.020108 0.610314 -0.835153
v 0.029616 -1.418565 -0.845066
v 0.045879 -1.403171 0.829452
v 0.046818 -1.394121 -0.844987
v -0.087499 -0.249612 -0.830644
v -0.088438 -0.258661 0.843794
v 0.050500 -0.843092 -0.838624
v 0.060265 -0.884651 0.835318
v 0.049561 -0.852142 0.835814
v 0.110923 -1.092988 -0.842230
v 0.114926 -1.132372 0.831796
v 0.115865 -1.123322 -0.842642
v 0.083216 0.295606 -0.830644
v 0.081512 0.315202 0.843465
v 0.082451 0.324252 -0.830973
v -0.052956 -0.513434 -0.833749
v -0.053895 -0.522484 0.840689
v 0.087374 -0.970390 -0.840524
v 0.095158 -1.011037 0.833446
v 0.086435 -0.979440 0.833914
v 0.043750 0.121467 -0.829365
v 0.057968 0.141970 0.844994
v 0.058907 0.151020 -0.829444
v 0.047895 0.524346 -0.833749
v 0.037694 0.543952 0.840221
v 0.038633 0.553002 -0.834217
v 0.063082 -1.378727 0.829530
v -0.086242 -0.314921 -0.831302
v -0.086553 -0.356626 0.842807
v -0.106535 1.190027 -0.843629
v -0.105502 1.213672 0.830480
v -0.104563 1.222722 -0.843958
v 0.101039 -1.032321 -0.841405
v 0.105042 -1.071704 0.832621
v 0.105981 -1.062654 -0.841817
v 0.080748 0.343848 0.843136
v -0.034423 -0.579999 -0.834685
v -0.026096 -0.622332 0.839285
v 0.113307 -1.238205 -0.843958
v 0.104347 -1.274012 0.830262
v 0.112368 -1.247254 0.830480
v 0.013435 0.062360 -0.829208
v 0.027654 0.082864 0.845152
v 0.028593 0.091914 -0.829287
v 0.028431 0.572608 0.839753
v 0.012413 -1.443008 -0.845144
v 0.028677 -1.427614 0.829373
v -0.025157 -0.613282 -0.835153
v -0.015210 -0.655402 0.838790
v -0.110479 1.124638 -0.842971
v -0.109446 1.148283 0.831138
v -0.108507 1.157333 -0.843300
v 0.109984 -1.102038 0.832209
v 0.083980 0.266960 -0.830315
v 0.082277 0.286556 0.843794
v -0.022802 0.726334 -0.837136
v -0.034077 0.746868 0.836806
v 0.097265 -1.291719 -0.844394
v 0.088305 -1.327526 0.829827
v 0.096326 -1.300769 0.830045
v 0.042811 0.112417 0.845073
v 0.057157 0.495690 -0.833281
v 0.046956 0.515296 0.840689
v 0.077712 0.237975 -0.830097
v 0.083041 0.257910 0.844123
v -0.003385 -0.679423 -0.836145
v 0.006561 -0.721544 0.837798
v -0.004324 -0.688473 0.838294
v -0.107474 1.180978 0.830809
v 0.096097 -1.001987 -0.840992
v 0.100100 -1.041370 0.833034
v -0.085614 -0.347576 -0.831631
v -0.080705 -0.389770 0.842395
v -0.043474 0.785501 -0.838128
v -0.054750 0.806035 0.835814
v -0.044413 0.776451 0.836310
v 0.105286 -1.264962 -0.844176
v -0.001722 0.032807 -0.829129
v 0.012496 0.053311 0.845231
v -0.108464 1.060516 -0.842230
v -0.113390 1.082894 0.831796
v -0.112451 1.091944 -0.842642
v 0.065175 0.180005 -0.829662
v 0.070505 0.199940 0.844559
v 0.071444 0.208990 -0.829880
v -0.014271 -0.646353 -0.835649
v -0.111418 1.115589 0.831467
v 0.063098 0.467154 -0.832869
v 0.056218 0.486640 0.841157
v -0.073918 -0.413864 -0.832456
v -0.069010 -0.456058 0.841570
v -0.074857 -0.422914 0.841982
v -0.033138 0.755918 -0.837632
v 0.089244 -1.318477 -0.844612
v -0.062564 -0.089696 -0.829444
v -0.048292 -0.068120 0.845073
v -0.063503 -0.098746 0.844994
v -0.100491 0.997660 -0.841405
v -0.105417 1.020038 0.832621
v -0.104478 1.029088 -0.841817
v 0.076773 0.228925 0.844341
v 0.007500 -0.712494 -0.836641
v 0.017447 -0.754615 0.837302
v 0.074981 0.410081 -0.832044
v 0.068101 0.429567 0.841982
v 0.069040 0.438617 -0.832456
v -0.079766 -0.380720 -0.832044
v -0.053811 0.815085 -0.838624
v -0.065086 0.835618 0.835318
v -0.032143 -0.028444 -0.829287
v -0.017871 -0.006868 0.845231
v -0.033082 -0.037494 0.845152
v -0.109403 1.051466 0.832209
v 0.064236 0.170955 0.844777
v 0.113947 -1.209484 -0.843629
v 0.062159 0.458104 0.841570
v -0.068071 -0.447008 -0.832869
v -0.063162 -0.489202 0.841157
v -0.081736 -0.185142 -0.830097
v -0.089066 -0.226007 0.844123
v -0.088127 -0.216957 -0.830315
v -0.047353 -0.059070 -0.829365
v -0.096505 0.966232 -0.840992
v -0.101430 0.988610 0.833034
v -0.075203 1.325293 -0.844611
v -0.066355 1.350433 0.829609
v -0.065416 1.359483 -0.844829
v 0.115226 -1.152043 -0.842971
v 0.113647 -1.189813 0.831138
v 0.114586 -1.180763 -0.843300
v 0.074042 0.401031 0.842395
v -0.088415 0.935841 -0.840524
v -0.097444 0.957182 0.833446
v -0.068955 -0.121511 -0.829662
v -0.076284 -0.162376 0.844559
v -0.075345 -0.153326 -0.829880
v -0.016932 0.002181 -0.829208
v -0.002661 0.023757 0.845309
v -0.046898 1.386348 0.829531
v -0.094776 1.256912 -0.844176
v -0.085928 1.282053 0.830045
v -0.084989 1.291102 -0.844394
v 0.113008 -1.218534 0.830809
v 0.008442 0.630269 0.838790
v -0.072236 0.875059 -0.839588
v -0.081265 0.896400 0.834382
v -0.080326 0.905450 -0.840056
v -0.082675 -0.194191 0.844341
v 0.018386 -0.745565 -0.837136
v -0.026501 1.431313 -0.844987
v -0.027440 1.422264 0.829452
v -0.076142 1.316243 0.829827
v 0.114287 -1.161092 0.831467
v 0.061204 -0.875601 -0.839120
v -0.001347 0.668324 -0.836145
v -0.002286 0.659274 0.838294
v -0.089354 0.926791 0.833914
v -0.069894 -0.130561 0.844777
v 0.039795 -0.810583 -0.838128
v -0.045959 1.395398 -0.844908
v -0.095715 1.247863 0.830263
v -0.062223 -0.480152 -0.833281
v 0.078651 -0.938794 -0.840056
v 0.009381 0.639319 -0.835649
v -0.064147 0.844668 -0.839120
v -0.073175 0.866009 0.834850
v 0.012413 1.503143 -0.845144
v 0.011474 -1.452058 0.829294
vn -0.8178 0.5755 0.0027
vn -0.9998 -0.0192 -0.0007
vn -0.9498 -0.3127 -0.0022
vn -0.8793 0.4763 0.0021
vn -0.9996 -0.0267 -0.0007
vn -0.9634 -0.2682 -0.0020
vn -0.9639 -0.2661 -0.0020
vn -0.9379 -0.3469 -0.0024
vn -0.9515 -0.3076 -0.0022
vn -0.9450 -0.3271 -0.0023
vn -0.9448 -0.3276 -0.0023
vn -0.9870 -0.1608 -0.0014
vn -0.9768 -0.2140 -0.0017
vn -0.8898 0.4564 0.0020
vn -0.9982 0.0602 -0.0002
vn -0.9877 0.1565 0.0003
vn -0.9579 0.2871 0.0010
vn -0.9878 0.1558 0.0003
vn -0.9499 -0.3126 -0.0022
vn -0.9440 -0.3299 -0.0023
vn -0.9774 0.2114 0.0006
vn -0.9770 -0.2135 -0.0017
vn -0.9848 -0.1737 -0.0015
vn -0.8927 0.4506 0.0019
vn -0.9920 -0.1259 -0.0012
vn -0.9790 -0.2038 -0.0017
vn -0.8956 0.4448 0.0019
vn -0.9499 -0.3127 -0.0022
vn -0.9790 -0.2039 -0.0017
vn -0.9557 -0.2942 -0.0021
vn -0.9921 -0.1258 -0.0012
vn -0.9998 0.0223 -0.0004
vn -0.9804 0.1969 0.0005
vn -0.9960 0.0892 -0.0001
vn -0.9960 0.0896 -0.0001
vn -0.9614 0.2752 0.0009
vn -0.9260 0.3774 0.0015
vn -0.9256 0.3786 0.0015
vn -0.9663 -0.2573 -0.0019
vn -0.8793 0.4764 0.0021
vn -0.9998 0.0222 -0.0004
vn -0.9663 -0.2572 -0.0019
vn -0.9560 -0.2933 -0.0021
s 1
f 1//1 2//1 3//1
f 4//2 5//2 6//2
f 7//3 8//3 9//3
f 10//4 12//4 11//4
f 13//5 14//5 15//5
f 16//6 17//6 18//6
f 19//7 20//7 21//7
f 22//8 24//8 23//8
f 25//9 26//10 27//11
f 28//1 29//1 30//1
f 31//2 6//2 32//2
f 33//3 34//3 35//3
f 36//12 38//12 37//12
f 39//5 40//5 41//5
f 42//6 18//6 43//6
f 44//7 45//13 46//7
f 47//14 48//14 49//14
f 50//9 51//9 52//9
f 30//1 53//1 1//1
f 54//2 55//2 5//2
f 56//15 57//15 58//15
f 59//12 61//12 60//12
f 41//5 62//5 13//5
f 63//6 64//6 17//6
f 65//16 66//17 67//18
f 68//14 69//14 70//14
f 52//9 71//9 25//9
f 72//1 73//1 28//1
f 74//19 75//19 64//19
f 76//15 77//15 78//15
f 61//12 36//12 79//12
f 80//5 81//5 39//5
f 82//20 23//20 83//20
f 84//17 85//17 86//17
f 70//14 87//14 47//14
f 88//9 89//9 50//9
f 90//21 91//21 80//21
f 92//19 93//19 94//19
f 78//15 95//15 56//15
f 96//22 59//12 97//12
f 98//23 99//23 55//23
f 100//20 102//20 101//20
f 103//17 86//17 66//17
f 104//24 105//14 68//14
f 106//25 107//25 108//25
f 109//21 110//21 111//21
f 112//19 94//19 75//19
f 108//15 113//15 76//15
f 114//26 115//26 88//26
f 116//23 117//23 118//23
f 119//20 83//20 102//20
f 120//17 2//17 85//17
f 121//27 123//27 122//27
f 124//25 125//25 126//25
f 111//21 127//21 90//21
f 128//19 129//28 93//19
f 130//26 131//29 132//29
f 133//23 118//23 99//23
f 134//20 101//20 135//30
f 136//27 138//27 137//27
f 126//25 139//25 106//31
f 49//21 140//21 109//21
f 141//32 65//16 67//18
f 132//29 142//29 114//29
f 143//23 144//23 117//23
f 145//33 147//34 146//35
f 148//27 122//27 138//27
f 149//31 150//25 124//25
f 151//36 152//37 153//38
f 154//32 156//32 155//32
f 15//26 157//26 130//26
f 158//39 159//39 149//39
f 160//33 162//33 161//33
f 163//27 137//27 164//24
f 153//38 152//37 165//4
f 166//36 167//36 168//36
f 156//32 141//32 169//32
f 27//11 26//10 170//8
f 171//39 172//39 173//39
f 162//33 145//33 174//33
f 175//28 9//3 129//28
f 176//40 177//40 12//4
f 168//36 178//36 151//36
f 38//41 154//32 179//32
f 180//7 21//7 34//7
f 181//8 182//8 24//8
f 173//39 183//39 158//42
f 121//33 160//33 184//33
f 147//34 32//2 146//35
f 185//3 35//3 8//3
f 186//40 165//4 177//40
f 58//36 187//36 166//36
f 188//6 43//6 144//6
f 189//7 46//7 20//7
f 190//8 170//8 182//8
f 191//43 192//39 171//39
f 1//1 53//1 2//1
f 4//2 54//2 5//2
f 7//3 185//3 8//3
f 10//4 11//4 193//4
f 13//5 62//5 14//5
f 16//6 63//6 17//6
f 19//7 189//7 20//7
f 22//8 23//8 82//8
f 25//9 71//9 26//10
f 28//1 73//1 29//1
f 31//2 4//2 6//2
f 33//3 180//3 34//3
f 36//12 37//12 79//12
f 39//5 81//5 40//5
f 42//6 16//6 18//6
f 44//7 96//22 45//13
f 47//14 87//14 48//14
f 50//9 89//9 51//9
f 30//1 29//1 53//1
f 54//2 98//2 55//2
f 56//15 95//15 57//15
f 59//12 60//12 97//12
f 41//5 40//5 62//5
f 63//6 74//6 64//6
f 65//16 103//17 66//17
f 68//14 105//14 69//14
f 52//9 51//9 71//9
f 72//1 194//1 73//1
f 74//19 112//19 75//19
f 76//15 113//15 77//15
f 61//12 79//12 60//12
f 80//5 91//5 81//5
f 82//20 83//20 119//20
f 84//17 120//17 85//17
f 70//14 69//14 87//14
f 88//9 115//9 89//9
f 90//21 127//21 91//21
f 92//19 128//19 93//19
f 78//15 77//15 95//15
f 96//22 97//12 45//13
f 98//23 133//23 99//23
f 100//20 101//20 134//20
f 103//17 84//17 86//17
f 104//24 164//24 105//14
f 106//31 139//25 107//25
f 109//21 140//21 110//21
f 112//19 92//19 94//19
f 108//15 107//15 113//15
f 114//29 142//29 115//26
f 116//23 143//23 117//23
f 119//20 102//20 100//20
f 120//17 3//17 2//17
f 121//27 122//27 148//27
f 124//25 150//25 125//25
f 111//21 110//21 127//21
f 128//19 175//28 129//28
f 130//26 157//26 131//29
f 133//23 116//23 118//23
f 134//20 135//30 191//43
f 136//27 137//27 163//27
f 126//25 125//25 139//25
f 49//21 48//21 140//21
f 141//32 67//18 169//32
f 132//29 131//29 142//29
f 143//23 188//23 144//23
f 145//33 146//35 174//33
f 148//27 138//27 136//27
f 149//31 159//31 150//31
f 151//36 178//36 152//37
f 154//32 155//32 179//32
f 15//26 14//26 157//26
f 158//42 183//39 159//39
f 160//33 161//33 184//33
f 163//27 164//24 104//24
f 153//38 165//4 186//40
f 166//36 187//36 167//36
f 156//32 169//32 155//32
f 27//11 170//8 190//8
f 171//39 192//39 172//39
f 162//33 174//33 161//33
f 175//28 7//3 9//3
f 176//40 12//4 10//4
f 168//36 167//36 178//36
f 38//41 179//41 37//41
f 180//7 19//7 21//7
f 181//8 24//8 22//8
f 173//39 172//39 183//39
f 121//33 184//33 123//33
f 147//34 31//2 32//2
f 185//3 33//3 35//3
f 186//40 177//40 176//40
f 58//36 57//36 187//36
f 188//6 42//6 43//6
f 189//7 44//7 46//7
f 190//8 182//8 181//8
f 191//43 135//30 192//39
